<svg xmlns="http://www.w3.org/2000/svg" width="256" height="255" fill="none" viewBox="0 0 256 255">
  <g transform="matrix(1.18 0 0 1.18 5.08 0.39)">
  <path d="m192.2 43.74h-52.76c-10.5 0-17.17 9.09-17.17 18.07v50.3c0 9.7 8.19 16.74 16.41 16.74h51.96c10.29 0 18.48-8.1 18.48-17.54v-50.71c0-9.51-7.41-16.86-16.92-16.86z" fill="#949494" opacity=".15"/>
  <path d="m190.4 43.07h-50.72c-10.29 0-17.29 8.59-17.29 18.04v49.63c0 9.46 8 17.25 17.42 17.25h50.47c10.29 0 18.29-8.12 18.29-17.57v-49.82c0-9.45-7.68-17.53-18.17-17.53z" fill="url(#paint2_linear_444_10734)"/>
  <path d="m190.4 44.21h-50.59c-9.64 0-16.21 7.93-16.21 17.03v49.22c0 8.79 7.47 16.3 16.53 16.3h49.96c9.57 0 17.07-7.98 17.07-17.11v-48.83c0-8.79-7.2-16.61-16.76-16.61z" fill="url(#paint3_linear_444_10734)"/>
  <path d="m159.2 61.47h34.69c1.25 0 1.5 0.74 1.5 1.59 0 0.93-0.43 1.56-1.42 1.56h-34.55c-1.13 0-1.68-0.63-1.68-1.61 0-0.93 0.48-1.54 1.46-1.54z" fill="#B85A7B"/>
  <path d="m146.4 55.77c-4.99 0-7.56 3.39-7.56 7.04 0 4 3.27 6.78 7.25 6.78 4.42 0 6.84-3.28 6.84-6.67 0-3.91-2.8-7.15-6.53-7.15z" fill="#B85A7B"/>
  <path d="m146 66.22-3.17-3.03c-0.49-0.48-0.4-1.17 0.04-1.65 0.54-0.57 1.23-0.55 1.76-0.03l1.49 1.46 2.84-3.51c0.48-0.58 1.16-0.58 1.71-0.15 0.65 0.51 0.57 1.3 0.2 1.78l-3.51 4.68c-0.43 0.58-0.93 0.81-1.36 0.45z" fill="url(#paint4_linear_444_10734)"/>
  <path d="m146.1 76.99c-5.21 0-7.4 3.77-7.4 7.12 0 4.37 3.12 6.88 7.35 6.88 4.65 0 6.47-3.73 6.47-6.61 0-4.07-2.67-7.39-6.42-7.39zm0.11 11.92c-3.62 0-5.52-2.27-5.52-5 0-2.7 1.84-5.05 5.3-5.05 3.12 0 4.9 2.6 4.9 5.18 0 2.73-2.12 4.87-4.68 4.87z" fill="#B85A7B"/>
  <path d="m159.2 82.64h34.42c1.11 0 1.58 0.67 1.58 1.64 0 0.98-0.59 1.58-1.52 1.58h-34.46c-1.02 0-1.59-0.66-1.59-1.64s0.63-1.58 1.57-1.58z" fill="#B85A7B"/>
  <path d="m146.1 98.01c-5.03 0-7.4 3.48-7.4 7.11 0 4.24 3.09 6.89 7.35 6.89 4.49 0 6.58-3.54 6.58-6.83 0-4.07-2.71-7.17-6.53-7.17zm0 12c-3.41 0-5.46-2.2-5.46-5.08 0-2.85 1.87-5.16 5.29-5.16 3.23 0 4.83 2.51 4.83 5.24 0 2.88-1.97 5-4.66 5z" fill="#B85A7B"/>
  <path d="m159.2 103.7h34.42c1.11 0 1.58 0.75 1.58 1.59 0 0.93-0.61 1.57-1.52 1.57h-34.46c-1.02 0-1.59-0.75-1.59-1.63 0-0.98 0.63-1.53 1.57-1.53z" fill="#B85A7B"/>
  <path d="m120.1 63.7h-65.04c-10.5 0-18.22 8.91-18.22 18.94v60.28c0 9.7 7.86 17.48 17.31 17.48h65.44c10.29 0 17.7-8.43 17.7-17.88v-61.22c0-9.45-7.69-17.6-17.19-17.6z" fill="#949494" opacity=".15"/>
  <path d="m119.2 62.91h-63.53c-10.29 0-18.68 8.25-18.68 18.7v60.8c0 10.21 8.39 17.81 18.05 17.81h63.78c10.3 0 18.19-8.59 18.19-18.8v-60.12c0-10.21-8.1-18.39-17.81-18.39z" fill="url(#paint5_linear_444_10734)"/>
  <path d="m119.2 64.31h-63.22c-9.84 0-17.19 7.73-17.19 17.43v60.28c0 9.19 7.63 16.46 16.56 16.46h63.21c9.57 0 16.92-8.22 16.92-17.92v-59.49c0-9.19-7.56-16.76-16.28-16.76z" fill="url(#paint6_linear_444_10734)"/>
  <path d="m75.67 84.71h43.15c1.62 0 1.94 0.77 1.94 1.79 0 1.2-0.6 1.86-1.88 1.86h-42.47c-1.4 0-2.1-0.74-2.1-1.94 0-1.13 0.7-1.71 1.36-1.71z" fill="#5A914A"/>
  <path d="m60.44 77.97c-5.89 0-8.22 4.33-8.22 8.09 0 4.62 3.84 7.5 7.96 7.5 5.04 0 7.24-3.94 7.24-7.42 0-4.33-2.66-8.17-6.98-8.17z" fill="#5A914A"/>
  <path d="m59.71 88.94-3.1-3.03c-0.55-0.52-0.39-1.3 0.1-1.78 0.61-0.6 1.37-0.52 1.85-0.03l1.62 1.69 3.46-3.87c0.6-0.66 1.33-0.57 1.84-0.1 0.69 0.63 0.53 1.51 0.05 2.04l-4.32 4.84c-0.55 0.61-1.09 0.67-1.5 0.24z" fill="url(#paint7_linear_444_10734)"/>
  <path d="m60.37 102.3c-5.76 0-8.18 4.27-8.18 7.89 0 4.68 3.69 7.48 7.92 7.48 5.4 0 7.6-4.03 7.6-7.51 0-4.43-2.9-7.86-7.34-7.86zm0 13.45c-4.16 0-6.18-2.83-6.18-5.77 0-3.01 2.08-5.81 6.05-5.81 3.72 0 5.55 3.04 5.55 5.98 0 3.12-2.46 5.6-5.42 5.6z" fill="#5A914A"/>
  <path d="m75.62 108.4h19.69c1.12 0 1.71 0.74 1.71 1.72 0 1.09-0.76 1.72-1.64 1.72h-19.71c-1.02 0-1.59-0.8-1.59-1.72 0-1.03 0.63-1.72 1.54-1.72z" fill="#5A914A"/>
  <path d="m60.37 126.2c-5.76 0-8.18 4.27-8.18 7.9 0 4.62 3.69 7.47 7.92 7.47 5.03 0 7.5-3.94 7.5-7.42 0-4.43-2.8-7.95-7.24-7.95zm0 13.45c-3.95 0-6.14-2.76-6.14-5.77 0-3.16 2.09-5.81 5.95-5.81 3.68 0 5.55 2.87 5.55 5.91 0 3.15-2.32 5.67-5.36 5.67z" fill="#5A914A"/>
  <path d="m75.62 131.3h19.69c1.12 0 1.71 0.75 1.71 1.72 0 0.98-0.76 1.68-1.64 1.68h-19.71c-1.02 0-1.59-0.75-1.59-1.73 0-0.97 0.63-1.67 1.54-1.67z" fill="#5A914A"/>
  <path d="m177.3 102.4h-72.95c-11.42 0-19.91 10.21-19.91 21.25v68.26c0 10.9 8.98 18.97 19.28 18.97h72.7c11.35 0 19.83-9.57 19.83-20.54v-68.72c0-10.97-8.68-19.22-18.95-19.22z" fill="#949494" opacity=".15"/>
  <path d="m176.3 101.6h-72.29c-11.35 0-19.59 9.5-19.59 20.5v68.23c0 10.97 8.88 19.37 19.68 19.37h72.05c11.35 0 19.59-9.45 19.59-20.42v-68.23c0-10.97-8.88-19.45-19.44-19.45z" fill="url(#paint8_linear_444_10734)"/>
  <path d="m176.4 103h-71.91c-10.49 0-18.02 8.58-18.02 19.2v67.6c0 10.21 8.58 18 18.64 18h71.04c10.49 0 18.25-8.97 18.25-19.59v-66.8c0-10.21-8.23-18.41-18-18.41z" fill="url(#paint9_linear_444_10734)"/>
  <path d="m127.9 126.1h48.72c1.67 0 2 0.92 2 2.05 0 1.34-0.73 2.09-1.95 2.09h-48.29c-1.54 0-2.29-0.85-2.29-2.15 0-1.25 0.85-1.99 1.81-1.99z" fill="#A89936"/>
  <path d="m110.3 119.1c-6.86 0-8.27 5.78-8.27 8.35 0 5.6 4.69 8.75 8.41 8.75 6.21 0 8.49-4.7 8.49-8.4 0-4.75-3.33-8.7-8.63-8.7z" fill="#A89936"/>
  <path d="m108.9 130.9-2.66-2.96c-0.55-0.58-0.39-1.34 0.16-1.84 0.67-0.63 1.43-0.52 1.95 0l1.33 1.45 3.79-3.78c0.67-0.67 1.4-0.52 1.91 0 0.67 0.69 0.51 1.55-0.04 2.1l-4.74 4.84c-0.57 0.6-1.23 0.7-1.7 0.19z" fill="url(#paint10_linear_444_10734)"/>
  <path d="m110.1 145.7c-6.66 0-8.07 5.6-8.07 8.72 0 5.66 4.6 8.76 8.44 8.76 5.94 0 8.46-4.72 8.46-8.13 0-5-3.43-9.35-8.83-9.35zm0.11 15.23c-4.7 0-6.32-3.42-6.32-6.3 0-3.32 1.84-6.8 6.38-6.8 4.35 0 6.54 3.55 6.54 6.87 0 3.55-2.8 6.23-6.6 6.23z" fill="#A89936"/>
  <path d="m127.8 152.2h48.82c1.3 0 1.9 0.87 1.9 1.95 0 1.2-0.89 2.01-1.95 2.01h-48.72c-1.25 0-1.92-0.88-1.92-2.01 0-1.2 0.8-1.95 1.87-1.95z" fill="#A89936"/>
  <path d="m110.1 172.6c-6.66 0-8.07 5.6-8.07 8.72 0 5.59 4.6 8.44 8.44 8.44 5.94 0 8.46-4.4 8.46-8.08 0-5-3.43-9.08-8.83-9.08zm0.11 15.2c-4.7 0-6.42-3.29-6.42-6.3 0-3.24 2.09-6.31 6.42-6.31 4.32 0 6.6 3.15 6.6 6.39 0 3.55-2.57 6.22-6.6 6.22z" fill="#A89936"/>
  <path d="m127.8 179.1h48.82c1.3 0 1.9 0.82 1.9 1.8 0 1.13-0.89 1.94-1.95 1.94h-48.72c-1.25 0-1.92-0.85-1.92-1.98s0.8-1.76 1.87-1.76z" fill="#A89936"/>
  </g>
  <defs>
    <linearGradient id="paint2_linear_444_10734" x1="165.5" x2="165.5" y1="43.07" y2="128" gradientUnits="userSpaceOnUse">
      <stop stop-color="#EBA0C6" offset="0"/>
      <stop stop-color="#EE94BE" offset="1"/>
    </linearGradient>
    <linearGradient id="paint3_linear_444_10734" x1="165.3" x2="165.3" y1="44.21" y2="126.8" gradientUnits="userSpaceOnUse">
      <stop stop-color="#EBA0C6" offset="0"/>
      <stop stop-color="#EE94BE" offset="1"/>
    </linearGradient>
    <linearGradient id="paint4_linear_444_10734" x1="146.9" x2="146.9" y1="58.95" y2="66.43" gradientUnits="userSpaceOnUse">
      <stop stop-color="#B85A7B" offset="0"/>
      <stop stop-color="#B85A7B" offset="1"/>
    </linearGradient>
    <linearGradient id="paint5_linear_444_10734" x1="87.05" x2="87.05" y1="62.91" y2="160.2" gradientUnits="userSpaceOnUse">
      <stop stop-color="#92D471" offset="0"/>
      <stop stop-color="#97DB7A" offset="1"/>
    </linearGradient>
    <linearGradient id="paint6_linear_444_10734" x1="87.18" x2="87.18" y1="64.31" y2="158.5" gradientUnits="userSpaceOnUse">
      <stop stop-color="#92D471" offset="0"/>
      <stop stop-color="#97DB7A" offset="1"/>
    </linearGradient>
    <linearGradient id="paint7_linear_444_10734" x1="60.8" x2="60.8" y1="81.45" y2="89.36" gradientUnits="userSpaceOnUse">
      <stop stop-color="#5A914A" offset="0"/>
      <stop stop-color="#5A914A" offset="1"/>
    </linearGradient>
    <linearGradient id="paint8_linear_444_10734" x1="140.1" x2="140.1" y1="101.6" y2="209.7" gradientUnits="userSpaceOnUse">
      <stop stop-color="#F6DF64" offset="0"/>
      <stop stop-color="#F6D33A" offset="1"/>
    </linearGradient>
    <linearGradient id="paint9_linear_444_10734" x1="140.4" x2="140.4" y1="103" y2="207.8" gradientUnits="userSpaceOnUse">
      <stop stop-color="#F6DF64" offset="0"/>
      <stop stop-color="#F6D33A" offset="1"/>
    </linearGradient>
    <linearGradient id="paint10_linear_444_10734" x1="110.6" x2="110.6" y1="123.3" y2="131.3" gradientUnits="userSpaceOnUse">
      <stop stop-color="#A89936" offset="0"/>
      <stop stop-color="#A89936" offset="1"/>
    </linearGradient>
  </defs>
</svg>
